<svg width="217" height="85" viewBox="0 0 217 85" fill="none" xmlns="http://www.w3.org/2000/svg">
<path d="M0.00207798 23.3626V0.589325H9.17165C11.5285 0.589325 13.295 1.0537 14.4735 1.98038C15.6519 2.90705 16.24 4.29394 16.24 6.13897C16.24 7.32386 15.9678 8.33175 15.4212 9.16264C14.8746 9.99352 14.0619 10.6287 12.9812 11.0722C14.3508 11.3304 15.4149 11.9406 16.1777 12.9047C16.9384 13.8689 17.3208 15.0871 17.3208 16.5615C17.3208 18.6439 16.6308 20.2973 15.2528 21.5239C13.8728 22.7504 12.0002 23.3647 9.63304 23.3647H0L0.00207798 23.3626ZM0.00207798 61.3605V38.5872H3.05929V49.5803L14.0038 38.5872H18.1105L8.81833 47.7082L18.3745 61.3605H14.5462L6.57998 49.9343L3.06137 53.3828V61.3605H0.00415675H0.00207798ZM3.08839 10.1601H8.50658C10.1007 10.1601 11.2749 9.87066 12.0252 9.29383C12.7755 8.717 13.1516 7.81531 13.1516 6.58877C13.1516 5.43511 12.7921 4.57923 12.0709 4.02323C11.3497 3.46722 10.2441 3.18818 8.75183 3.18818H3.08631V10.1601H3.08839ZM3.08839 20.6118H9.35662C10.932 20.6118 12.1249 20.264 12.9376 19.5685C13.7502 18.873 14.1575 17.8609 14.1575 16.5302C14.1575 15.1996 13.744 14.2417 12.9147 13.6232C12.0855 13.0047 10.7824 12.6965 9.00123 12.6965H3.08839V20.6118ZM17.645 61.3605L26.0892 38.5872H29.5018L37.9772 61.3605H34.627L32.2182 54.5573H23.2648L20.8414 61.3605H17.645ZM20.9932 23.3626V0.589325H24.0816V23.3626H20.9932ZM24.2208 51.898H31.3058L27.7872 41.8483L24.2208 51.898ZM28.0034 15.8639H30.9837C31.0148 17.5131 31.5635 18.8271 32.6276 19.8059C33.6938 20.7846 35.1154 21.274 36.8965 21.274C38.6776 21.274 40.0431 20.9033 41.0573 20.1599C42.0715 19.4185 42.5786 18.4086 42.5786 17.13C42.5786 15.3891 40.6749 14.0626 36.8674 13.1567C36.6409 13.1047 36.4663 13.063 36.3416 13.0339C33.2532 12.3029 31.2144 11.4845 30.2209 10.5828C29.2275 9.68116 28.7308 8.40047 28.7308 6.74078C28.7308 4.71043 29.4727 3.07989 30.9546 1.8471C32.4364 0.616395 34.4067 0 36.8674 0C39.3281 0 41.3545 0.64763 42.7948 1.94081C44.2351 3.23399 44.9666 5.0103 44.9874 7.26764L42.0383 7.28221C41.9344 5.7558 41.4189 4.58756 40.4879 3.77334C39.5568 2.95911 38.2828 2.55096 36.6679 2.55096C35.1549 2.55096 33.9453 2.88415 33.0412 3.54844C32.1351 4.21273 31.682 5.09776 31.682 6.19936C31.682 7.96108 33.5546 9.27509 37.3018 10.1414C37.8567 10.2746 38.2848 10.3788 38.582 10.4517C38.6444 10.4621 38.7524 10.4871 38.9062 10.5287C41.3545 11.1159 42.9818 11.7511 43.7841 12.43C44.391 12.9464 44.8544 13.5711 45.1724 14.3083C45.4904 15.0455 45.6504 15.868 45.6504 16.7739C45.6504 18.9687 44.8648 20.7159 43.2957 22.0153C41.7265 23.3147 39.6046 23.9645 36.9277 23.9645C34.2508 23.9645 32.0208 23.2669 30.4828 21.8696C28.9448 20.4722 28.1177 18.471 28.0054 15.8639H28.0034ZM45.3366 61.3605V41.3547H38.1581V38.5872H55.6181V41.3547H48.4395V61.3605H45.3366ZM49.4766 23.3626V0.589325H65.6855V3.41933H52.5338V10.2226H64.6837V12.8818H52.5338V20.5201H65.9494V23.3647H49.4787L49.4766 23.3626ZM74.269 52.9038H77.2638C77.1308 55.6776 76.1852 57.885 74.4311 59.528C72.677 61.1731 70.4095 61.9936 67.6308 61.9936C64.4302 61.9936 61.9216 60.9003 60.1052 58.7159C58.2887 56.5314 57.3805 53.5056 57.3805 49.6407C57.3805 46.0735 58.3324 43.2435 60.2361 41.1444C62.1399 39.0474 64.7066 37.9979 67.9384 37.9979C70.5113 37.9979 72.6188 38.6622 74.2606 39.9928C75.9025 41.3235 76.8523 43.1373 77.1079 45.4342H74.0819C73.793 43.9286 73.1092 42.7729 72.0285 41.9628C70.9478 41.1527 69.5428 40.7487 67.8137 40.7487C65.5088 40.7487 63.7194 41.5588 62.4495 43.1768C61.1776 44.7949 60.5437 47.0793 60.5437 50.0259C60.5437 52.808 61.2046 55.0404 62.5264 56.7209C63.8482 58.4014 65.6003 59.2406 67.7825 59.2406C69.6447 59.2406 71.1702 58.6617 72.359 57.5018C73.5478 56.3419 74.1837 54.8092 74.2648 52.9017L74.269 52.9038ZM69.6821 23.3626V0.589325H72.7996V20.4868H84.1306V23.3626H69.6821ZM80.905 61.3605V38.5872H83.9934V47.9414H95.7879V38.5872H98.8909V61.3605H95.7879V50.6923H83.9934V61.3605H80.905ZM86.6038 23.3626V0.589325H89.7213V20.4868H101.052V23.3626H86.6038ZM103.584 23.3626V0.589325H106.672V23.3626H103.584ZM103.771 61.3605V38.5872H112.94C115.297 38.5872 117.064 39.0516 118.242 39.9783C119.421 40.9049 120.009 42.2918 120.009 44.1368C120.009 45.3217 119.736 46.3296 119.19 47.1605C118.643 47.9893 117.831 48.6265 116.75 49.0701C118.12 49.3283 119.184 49.9385 119.944 50.9026C120.705 51.8668 121.087 53.085 121.087 54.5593C121.087 56.6418 120.397 58.2952 119.019 59.5217C117.639 60.7483 115.767 61.3626 113.4 61.3626H103.767L103.771 61.3605ZM106.857 48.1559H112.275C113.869 48.1559 115.044 47.8665 115.796 47.2896C116.546 46.7128 116.922 45.8111 116.922 44.5846C116.922 43.4309 116.563 42.575 115.842 42.019C115.121 41.463 114.015 41.184 112.523 41.184H106.857V48.1559ZM106.857 58.6076H113.125C114.701 58.6076 115.894 58.2598 116.706 57.5643C117.519 56.8687 117.926 55.8567 117.926 54.526C117.926 53.1954 117.513 52.2374 116.683 51.619C115.854 51.0005 114.551 50.6923 112.77 50.6923H106.857V58.6076ZM123.712 49.9968C123.712 46.2338 124.666 43.2935 126.576 41.1756C128.484 39.0578 131.128 37.9979 134.503 37.9979C137.878 37.9979 140.501 39.0537 142.399 41.1673C144.298 43.281 145.246 46.2234 145.246 49.9947C145.246 53.7659 144.296 56.698 142.399 58.8158C140.499 60.9336 137.868 61.9936 134.503 61.9936C131.138 61.9936 128.484 60.9336 126.576 58.8158C124.666 56.698 123.712 53.7576 123.712 49.9947V49.9968ZM126.907 49.9968C126.907 52.9142 127.578 55.1945 128.921 56.8375C130.263 58.4826 132.123 59.3031 134.501 59.3031C136.878 59.3031 138.718 58.4805 140.05 56.8375C141.382 55.1945 142.049 52.9122 142.049 49.9968C142.049 47.0814 141.382 44.7866 140.05 43.1477C138.718 41.5088 136.868 40.6904 134.501 40.6904C132.134 40.6904 130.263 41.5088 128.921 43.1477C127.578 44.7866 126.907 47.0689 126.907 49.9968ZM149.134 38.5872H157.949C159.378 38.5872 160.432 38.6497 161.106 38.7725C161.779 38.8954 162.384 39.1016 162.92 39.391C163.878 39.9158 164.605 40.6488 165.104 41.5859C165.603 42.523 165.852 43.6267 165.852 44.8948C165.852 46.163 165.591 47.1709 165.065 48.0414C164.539 48.9118 163.757 49.5949 162.718 50.0905C163.604 50.3383 164.233 50.7548 164.61 51.342C164.986 51.9292 165.219 52.9246 165.312 54.3261L165.574 58.0828C165.626 58.8866 165.73 59.4863 165.89 59.8841C166.05 60.2818 166.289 60.563 166.607 60.7275V61.3605H163.04C162.752 60.8857 162.552 59.8716 162.438 58.3139V58.2202L162.253 55.2507C162.149 53.7264 161.825 52.7351 161.28 52.2812C160.736 51.8272 159.37 51.6002 157.19 51.6002H152.187V61.3564H149.13V38.583L149.134 38.5872ZM152.16 41.261V48.9764H157.439C159.343 48.9764 160.688 48.6682 161.475 48.0497C162.263 47.4312 162.656 46.4004 162.656 44.9573C162.656 43.6079 162.286 42.6542 161.544 42.0961C160.802 41.5401 159.435 41.261 157.437 41.261H152.158H152.16ZM170.192 61.3605V38.5872H173.28V61.3605H170.192ZM175.72 61.3605L184.165 38.5872H187.577L196.053 61.3605H192.702L190.294 54.5573H181.34L178.917 61.3605H175.72ZM182.296 51.898H189.381L185.86 41.8483L182.294 51.898H182.296ZM198.366 61.3605V38.5872H201.747L212.367 55.1299C212.604 55.4902 212.81 55.8317 212.985 56.1503C213.159 56.4689 213.298 56.7688 213.402 57.0478V38.5872H216.352V61.3605H213.001L202.148 44.5846C201.984 44.3263 201.832 44.0598 201.693 43.7808C201.554 43.5017 201.423 43.2081 201.3 42.8999V61.3605H198.368H198.366Z" fill="white"/>
<path d="M8.03896 79.9147C7.59004 80.4978 7.01019 80.9414 6.29525 81.2475C5.5803 81.5536 4.7656 81.7077 3.85114 81.7077C2.627 81.7077 1.67929 81.4432 1.00799 80.9164C0.336688 80.3895 0 79.6523 0 78.7048C0 78.1884 0.120543 77.7303 0.35955 77.3263C0.598558 76.9223 0.958108 76.5766 1.43612 76.2851C1.67305 76.1393 2.0139 76.0185 2.45866 75.9207C2.90342 75.8228 3.62875 75.7207 4.63466 75.6104C4.80924 75.5916 5.06488 75.5646 5.39741 75.5292C7.09956 75.3646 7.94959 74.9315 7.94959 74.2276C7.94959 73.7008 7.74592 73.3155 7.34064 73.0761C6.93537 72.8366 6.27446 72.7158 5.36 72.7158C4.325 72.7158 3.56848 72.8699 3.09255 73.1802C2.61661 73.4905 2.35474 73.9861 2.30694 74.6733L0.436448 74.6816C0.496719 73.5113 0.929011 72.6304 1.73124 72.039C2.53348 71.4476 3.7015 71.1519 5.23322 71.1519C6.89796 71.1519 8.07429 71.4018 8.76222 71.9016C9.45014 72.4014 9.79307 73.2593 9.79307 74.4713V78.4924C9.79307 79.0505 9.8575 79.4358 9.98843 79.6482C10.1194 79.8606 10.3501 79.9668 10.6826 79.9668C10.7553 79.9668 10.8364 79.9626 10.9237 79.9522C11.011 79.9439 11.1045 79.9293 11.2001 79.9106V81.3662C10.9632 81.3974 10.7283 81.4203 10.4914 81.4349C10.2545 81.4495 10.0279 81.4578 9.80969 81.4578C9.2818 81.4578 8.8786 81.3349 8.59595 81.0892C8.3133 80.8435 8.12833 80.4499 8.03688 79.9106L8.03896 79.9147ZM7.98285 76.3392C7.73345 76.485 7.36974 76.6141 6.88757 76.7265C6.4054 76.839 5.76527 76.941 4.9672 77.0306C3.67032 77.1764 2.84731 77.3617 2.49607 77.5866C2.14483 77.8115 1.96817 78.1593 1.96817 78.632C1.96817 79.1047 2.15938 79.4962 2.54595 79.769C2.93044 80.0418 3.46457 80.1792 4.15041 80.1792C5.25193 80.1792 6.16639 79.9522 6.8938 79.4962C7.62122 79.0422 7.98492 78.4862 7.98492 77.8302V76.3371L7.98285 76.3392ZM12.869 81.462V71.4914H14.6584V73.1739C15.1136 72.518 15.6519 72.0182 16.2754 71.6725C16.8989 71.3268 17.5806 71.154 18.3184 71.154C18.4992 71.154 18.6509 71.1686 18.7735 71.1956C18.8941 71.2227 19.0125 71.2664 19.1268 71.3268V73.2281C18.8837 73.1552 18.6592 73.1031 18.4493 73.0698C18.2394 73.0365 18.0357 73.0198 17.8362 73.0198C16.9467 73.0198 16.1964 73.3572 15.5874 74.034C14.9785 74.7108 14.6751 75.5583 14.6751 76.5766V81.462H12.8669H12.869ZM30.6407 85H28.8139V79.9876C28.3047 80.5769 27.7394 81.0101 27.1201 81.2891C26.4986 81.5682 25.7899 81.7077 24.9898 81.7077C23.3978 81.7077 22.1092 81.2246 21.1241 80.2604C20.139 79.2962 19.6485 78.0385 19.6485 76.485C19.6485 74.9315 20.141 73.6716 21.1303 72.7054C22.1175 71.7371 23.3957 71.254 24.9648 71.254C25.7754 71.254 26.4986 71.3956 27.1325 71.6767C27.7643 71.9578 28.3276 72.393 28.8181 72.9824V71.4893H30.6449V85H30.6407ZM28.8139 76.485C28.8139 75.3813 28.4876 74.5088 27.8371 73.8695C27.1866 73.2302 26.297 72.9095 25.1706 72.9095C24.0441 72.9095 23.1505 73.2281 22.5083 73.8653C21.8661 74.5025 21.546 75.3751 21.546 76.485C21.546 77.5949 21.8661 78.4758 22.5083 79.1088C23.1505 79.7419 24.0379 80.0605 25.1706 80.0605C26.3033 80.0605 27.1866 79.7419 27.8371 79.1047C28.4876 78.4675 28.8139 77.5949 28.8139 76.485ZM42.9943 71.4893V81.4599H41.2132V79.7669C40.6624 80.4333 40.0493 80.9309 39.378 81.2537C38.7067 81.5786 37.9461 81.741 37.0981 81.741C36.4497 81.741 35.8719 81.6431 35.3627 81.4453C34.8535 81.2475 34.4337 80.9622 34.0991 80.5853C33.8206 80.2583 33.6211 79.8648 33.5005 79.4066C33.38 78.9485 33.3197 78.2155 33.3197 77.2097V71.4872H35.1279V77.2826C35.1279 78.3383 35.3107 79.088 35.6765 79.5295C36.0423 79.973 36.6533 80.1938 37.5075 80.1938C38.5987 80.1938 39.484 79.8585 40.1699 79.188C40.8536 78.5174 41.1966 77.6407 41.1966 76.5537V71.4851H42.9943V71.4893ZM47.5375 70.1898H45.7398V68.0054H47.5375V70.1898ZM45.7398 81.462V71.4914H47.5375V81.462H45.7398ZM53.1594 79.0047C53.1594 79.4295 53.2508 79.7315 53.4358 79.9106C53.6208 80.0897 53.9305 80.1792 54.3669 80.1792C54.5311 80.1792 54.7098 80.1646 54.9073 80.1375C55.1047 80.1105 55.3271 80.0667 55.5744 80.0064V81.6431C55.1442 81.7098 54.8096 81.7556 54.5706 81.7806C54.3316 81.8056 54.1154 81.816 53.9201 81.816C53.0409 81.816 52.3904 81.6286 51.9664 81.2516C51.5425 80.8747 51.3305 80.3 51.3305 79.5232V73.0552H49.6034V71.4914H51.3305V68.9612H53.1573V71.4914H55.5744V73.0552H53.1573V79.0047H53.1594ZM58.5921 76.839V76.9119C58.5921 77.8573 58.9247 78.6299 59.5877 79.2275C60.2507 79.8252 61.109 80.123 62.1627 80.123C62.9504 80.123 63.6217 79.9647 64.1787 79.6503C64.7357 79.3358 65.1181 78.9006 65.3238 78.3488H67.4313C67.0738 79.4399 66.4337 80.2916 65.5109 80.8997C64.5881 81.5099 63.472 81.8139 62.1627 81.8139C60.5042 81.8139 59.1762 81.3308 58.1827 80.3625C57.1893 79.3941 56.6925 78.1009 56.6925 76.4829C56.6925 74.8649 57.1893 73.5696 58.1827 72.6034C59.1762 71.635 60.5021 71.1519 62.1627 71.1519C63.8233 71.1519 65.1887 71.6246 66.151 72.5721C67.1133 73.5175 67.5954 74.8232 67.5954 76.485V76.839H58.5921ZM58.6483 75.5562H65.6626C65.5234 74.7066 65.143 74.0423 64.5216 73.5592C63.9002 73.0761 63.1146 72.8366 62.1648 72.8366C61.215 72.8366 60.4356 73.0782 59.8121 73.5592C59.1886 74.0423 58.8 74.7066 58.6483 75.5562ZM72.5855 79.0047C72.5855 79.4295 72.677 79.7315 72.8619 79.9106C73.0469 80.0897 73.3566 80.1792 73.793 80.1792C73.9572 80.1792 74.1359 80.1646 74.3334 80.1375C74.5308 80.1105 74.7532 80.0667 75.0005 80.0064V81.6431C74.5703 81.7098 74.2357 81.7556 73.9967 81.7806C73.7577 81.8056 73.5415 81.816 73.3462 81.816C72.467 81.816 71.8165 81.6286 71.3925 81.2516C70.9686 80.8747 70.7566 80.3 70.7566 79.5232V73.0552H69.0316V71.4914H70.7566V68.9612H72.5834V71.4914H75.0005V73.0552H72.5834V79.0047H72.5855ZM76.0064 76.485C76.0064 74.8711 76.5115 73.58 77.5236 72.6096C78.5358 71.6392 79.8887 71.154 81.5846 71.154C83.2806 71.154 84.6315 71.6371 85.6374 72.6054C86.6433 73.5738 87.1462 74.867 87.1462 76.485C87.1462 78.103 86.6433 79.3983 85.6374 80.3645C84.6315 81.3329 83.2806 81.816 81.5846 81.816C79.8887 81.816 78.5358 81.3329 77.5236 80.3645C76.5115 79.3962 76.0064 78.103 76.0064 76.485ZM77.8852 76.485C77.8852 77.6074 78.2178 78.4945 78.8807 79.1463C79.5437 79.7981 80.4457 80.1251 81.5826 80.1251C82.7194 80.1251 83.6214 79.7981 84.2802 79.1463C84.9412 78.4945 85.2695 77.6074 85.2695 76.485C85.2695 75.3626 84.9391 74.4671 84.2802 73.8153C83.6193 73.1635 82.7215 72.8366 81.5826 72.8366C80.4436 72.8366 79.5437 73.1635 78.8807 73.8195C78.2178 74.4755 77.8852 75.3626 77.8852 76.485ZM88.3891 78.2217H90.3697C90.4549 78.8589 90.748 79.3504 91.2509 79.6961C91.7539 80.0418 92.4314 80.2146 93.2856 80.2146C94.2666 80.2146 95.0293 80.0813 95.5759 79.8148C96.1205 79.5482 96.3927 79.1776 96.3927 78.7048C96.3927 78.3592 96.2659 78.0968 96.0103 77.9177C95.7568 77.7386 95.2808 77.5908 94.5846 77.4762L92.3587 77.0847C90.9891 76.8536 90.0642 76.5391 89.5841 76.1393C89.102 75.7395 88.8609 75.1418 88.8609 74.3463C88.8609 73.3031 89.2412 72.5097 90.0019 71.9682C90.7625 71.4247 91.8744 71.154 93.3397 71.154C94.8049 71.154 95.9355 71.4351 96.7149 71.9953C97.4921 72.5555 97.8829 73.3655 97.8829 74.4192V74.4921H96.1288C96.0685 73.8799 95.8025 73.4238 95.3286 73.1281C94.8568 72.8303 94.1627 72.6825 93.2482 72.6825C92.4127 72.6825 91.7747 72.797 91.3362 73.0282C90.8976 73.2593 90.6773 73.5925 90.6773 74.0298C90.6773 74.4109 90.8103 74.6983 91.0764 74.8899C91.3424 75.0814 91.9555 75.2584 92.9115 75.423L95.073 75.777C96.2659 75.9769 97.0952 76.2872 97.5566 76.7099C98.02 77.1305 98.2507 77.7615 98.2507 78.5986C98.2507 79.6294 97.8226 80.4249 96.9643 80.983C96.108 81.5411 94.8797 81.8201 93.2794 81.8201C91.6791 81.8201 90.5609 81.5265 89.7587 80.9372C88.9565 80.35 88.4972 79.4441 88.3829 78.2259L88.3891 78.2217ZM113.971 79.9147C113.522 80.4978 112.942 80.9414 112.227 81.2475C111.513 81.5536 110.698 81.7077 109.783 81.7077C108.559 81.7077 107.612 81.4432 106.94 80.9164C106.269 80.3895 105.932 79.6523 105.932 78.7048C105.932 78.1884 106.053 77.7303 106.292 77.3263C106.531 76.9223 106.89 76.5766 107.368 76.2851C107.605 76.1393 107.946 76.0185 108.391 75.9207C108.836 75.8228 109.561 75.7207 110.567 75.6104C110.744 75.5916 110.997 75.5646 111.33 75.5292C113.032 75.3646 113.882 74.9315 113.882 74.2276C113.882 73.7008 113.678 73.3155 113.273 73.0761C112.868 72.8366 112.207 72.7158 111.292 72.7158C110.257 72.7158 109.501 72.8699 109.025 73.1802C108.549 73.4905 108.287 73.9861 108.239 74.6733L106.369 74.6816C106.429 73.5113 106.861 72.6304 107.663 72.039C108.466 71.4476 109.634 71.1519 111.165 71.1519C112.83 71.1519 114.007 71.4018 114.694 71.9016C115.382 72.4014 115.725 73.2593 115.725 74.4713V78.4924C115.725 79.0505 115.79 79.4358 115.921 79.6482C116.052 79.8606 116.282 79.9668 116.615 79.9668C116.688 79.9668 116.769 79.9626 116.856 79.9522C116.943 79.9439 117.037 79.9293 117.132 79.9106V81.3662C116.895 81.3974 116.661 81.4203 116.424 81.4349C116.187 81.4495 115.96 81.4578 115.742 81.4578C115.214 81.4578 114.811 81.3349 114.528 81.0892C114.246 80.8435 114.061 80.4499 113.969 79.9106L113.971 79.9147ZM113.917 76.3392C113.668 76.485 113.304 76.6141 112.822 76.7265C112.34 76.839 111.7 76.941 110.902 77.0306C109.605 77.1764 108.782 77.3617 108.43 77.5866C108.079 77.8115 107.902 78.1593 107.902 78.632C107.902 79.1047 108.094 79.4962 108.48 79.769C108.865 80.0418 109.399 80.1792 110.085 80.1792C111.186 80.1792 112.101 79.9522 112.828 79.4962C113.556 79.0422 113.919 78.4862 113.919 77.8302V76.3371L113.917 76.3392ZM118.061 78.2217H120.042C120.127 78.8589 120.42 79.3504 120.923 79.6961C121.426 80.0418 122.104 80.2146 122.958 80.2146C123.939 80.2146 124.702 80.0813 125.248 79.8148C125.793 79.5482 126.065 79.1776 126.065 78.7048C126.065 78.3592 125.938 78.0968 125.683 77.9177C125.429 77.7386 124.953 77.5908 124.257 77.4762L122.031 77.0847C120.661 76.8536 119.736 76.5391 119.256 76.1393C118.774 75.7395 118.535 75.1418 118.535 74.3463C118.535 73.3031 118.916 72.5097 119.676 71.9682C120.437 71.4247 121.549 71.154 123.014 71.154C124.479 71.154 125.61 71.4351 126.389 71.9953C127.166 72.5555 127.557 73.3655 127.557 74.4192V74.4921H125.803C125.743 73.8799 125.477 73.4238 125.003 73.1281C124.531 72.8303 123.837 72.6825 122.923 72.6825C122.087 72.6825 121.449 72.797 121.01 73.0282C120.572 73.2593 120.352 73.5925 120.352 74.0298C120.352 74.4109 120.485 74.6983 120.751 74.8899C121.017 75.0814 121.63 75.2584 122.586 75.423L124.747 75.777C125.94 75.9769 126.77 76.2872 127.231 76.7099C127.694 77.1305 127.925 77.7615 127.925 78.5986C127.925 79.6294 127.497 80.4249 126.639 80.983C125.782 81.5411 124.554 81.8201 122.954 81.8201C121.353 81.8201 120.235 81.5265 119.433 80.9372C118.631 80.35 118.171 79.4441 118.057 78.2259L118.061 78.2217ZM129.056 78.2217H131.036C131.122 78.8589 131.415 79.3504 131.918 79.6961C132.42 80.0418 133.098 80.2146 133.952 80.2146C134.933 80.2146 135.696 80.0813 136.243 79.8148C136.787 79.5482 137.059 79.1776 137.059 78.7048C137.059 78.3592 136.933 78.0968 136.677 77.9177C136.423 77.7386 135.947 77.5908 135.251 77.4762L133.025 77.0847C131.656 76.8536 130.731 76.5391 130.251 76.1393C129.769 75.7395 129.53 75.1418 129.53 74.3463C129.53 73.3031 129.91 72.5097 130.671 71.9682C131.431 71.4247 132.543 71.154 134.008 71.154C135.474 71.154 136.604 71.4351 137.384 71.9953C138.161 72.5555 138.552 73.3655 138.552 74.4192V74.4921H136.797C136.737 73.8799 136.471 73.4238 135.997 73.1281C135.525 72.8303 134.831 72.6825 133.917 72.6825C133.081 72.6825 132.443 72.797 132.005 73.0282C131.566 73.2593 131.346 73.5925 131.346 74.0298C131.346 74.4109 131.479 74.6983 131.745 74.8899C132.011 75.0814 132.624 75.2584 133.58 75.423L135.742 75.777C136.935 75.9769 137.764 76.2872 138.227 76.7099C138.691 77.1305 138.921 77.7615 138.921 78.5986C138.921 79.6294 138.493 80.4249 137.635 80.983C136.779 81.5411 135.55 81.8201 133.952 81.8201C132.354 81.8201 131.234 81.5265 130.432 80.9372C129.629 80.35 129.17 79.4441 129.056 78.2259V78.2217ZM140.148 76.485C140.148 74.8711 140.653 73.58 141.665 72.6096C142.677 71.6392 144.03 71.154 145.726 71.154C147.422 71.154 148.773 71.6371 149.779 72.6054C150.785 73.5738 151.288 74.867 151.288 76.485C151.288 78.103 150.785 79.3983 149.779 80.3645C148.773 81.3329 147.422 81.816 145.726 81.816C144.03 81.816 142.677 81.3329 141.665 80.3645C140.653 79.3962 140.148 78.103 140.148 76.485ZM142.029 76.485C142.029 77.6074 142.361 78.4945 143.024 79.1463C143.687 79.7981 144.589 80.1251 145.726 80.1251C146.863 80.1251 147.765 79.7981 148.424 79.1463C149.084 78.4945 149.413 77.6074 149.413 76.485C149.413 75.3626 149.082 74.4671 148.424 73.8153C147.763 73.1635 146.865 72.8366 145.726 72.8366C144.587 72.8366 143.687 73.1635 143.024 73.8195C142.361 74.4755 142.029 75.3626 142.029 76.485ZM161.112 74.792C160.931 74.1798 160.582 73.7008 160.066 73.3551C159.551 73.0094 158.932 72.8366 158.204 72.8366C157.065 72.8366 156.165 73.1635 155.502 73.8195C154.839 74.4755 154.507 75.3626 154.507 76.485C154.507 77.6074 154.833 78.4633 155.488 79.1276C156.142 79.7919 157.005 80.123 158.077 80.123C158.894 80.123 159.584 79.9064 160.143 79.4733C160.704 79.0401 161.043 78.4591 161.166 77.7303H163.065C162.847 78.9985 162.288 79.9959 161.384 80.7227C160.482 81.4516 159.356 81.8139 158.005 81.8139C156.413 81.8139 155.118 81.3204 154.12 80.3312C153.125 79.3421 152.626 78.0593 152.626 76.4829C152.626 74.9065 153.125 73.6154 154.124 72.6304C155.124 71.6455 156.429 71.1519 158.04 71.1519C159.341 71.1519 160.438 71.4789 161.328 72.1348C162.217 72.7908 162.77 73.6758 162.982 74.792H161.112ZM167.137 70.1898H165.339V68.0054H167.137V70.1898ZM165.337 81.462V71.4914H167.135V81.462H165.337ZM177.537 79.9147C177.088 80.4978 176.508 80.9414 175.793 81.2475C175.078 81.5536 174.263 81.7077 173.349 81.7077C172.125 81.7077 171.177 81.4432 170.506 80.9164C169.834 80.3895 169.498 79.6523 169.498 78.7048C169.498 78.1884 169.618 77.7303 169.857 77.3263C170.096 76.9223 170.456 76.5766 170.934 76.2851C171.171 76.1393 171.512 76.0185 171.956 75.9207C172.401 75.8228 173.127 75.7207 174.132 75.6104C174.309 75.5916 174.563 75.5646 174.895 75.5292C176.597 75.3646 177.447 74.9315 177.447 74.2276C177.447 73.7008 177.244 73.3155 176.838 73.0761C176.433 72.8366 175.772 72.7158 174.858 72.7158C173.823 72.7158 173.066 72.8699 172.59 73.1802C172.114 73.4905 171.853 73.9861 171.805 74.6733L169.934 74.6816C169.995 73.5113 170.427 72.6304 171.229 72.039C172.031 71.4476 173.199 71.1519 174.731 71.1519C176.396 71.1519 177.572 71.4018 178.26 71.9016C178.948 72.4014 179.291 73.2593 179.291 74.4713V78.4924C179.291 79.0505 179.355 79.4358 179.486 79.6482C179.617 79.8606 179.848 79.9668 180.18 79.9668C180.253 79.9668 180.334 79.9626 180.421 79.9522C180.509 79.9439 180.602 79.9293 180.698 79.9106V81.3662C180.461 81.3974 180.226 81.4203 179.989 81.4349C179.752 81.4495 179.526 81.4578 179.307 81.4578C178.782 81.4578 178.376 81.3349 178.094 81.0892C177.811 80.8435 177.626 80.4499 177.535 79.9106L177.537 79.9147ZM177.483 76.3392C177.233 76.485 176.87 76.6141 176.387 76.7265C175.905 76.839 175.265 76.941 174.467 77.0306C173.17 77.1764 172.347 77.3617 171.996 77.5866C171.645 77.8115 171.468 78.1593 171.468 78.632C171.468 79.1047 171.659 79.4962 172.046 79.769C172.43 80.0418 172.964 80.1792 173.648 80.1792C174.75 80.1792 175.664 79.9522 176.392 79.4962C177.119 79.0422 177.483 78.4862 177.483 77.8302V76.3371V76.3392ZM192.719 68.0054V81.462H190.892V80.0064C190.395 80.5998 189.83 81.0413 189.198 81.3308C188.564 81.6181 187.845 81.7639 187.041 81.7639C185.472 81.7639 184.194 81.2787 183.206 80.3083C182.219 79.3379 181.725 78.076 181.725 76.5246C181.725 74.9732 182.217 73.7216 183.2 72.7575C184.183 71.7933 185.472 71.3102 187.066 71.3102C187.866 71.3102 188.575 71.4497 189.196 71.7287C189.818 72.0078 190.381 72.4389 190.89 73.0198V68.0075H192.717L192.719 68.0054ZM190.894 76.5204C190.894 75.4167 190.568 74.5442 189.917 73.9049C189.267 73.2656 188.377 72.9449 187.251 72.9449C186.124 72.9449 185.231 73.2635 184.589 73.9007C183.946 74.5379 183.626 75.4105 183.626 76.5204C183.626 77.6303 183.946 78.5112 184.589 79.1442C185.231 79.7773 186.118 80.0959 187.251 80.0959C188.384 80.0959 189.267 79.7773 189.917 79.1401C190.568 78.5029 190.894 77.6303 190.894 76.5204ZM194.752 76.485C194.752 74.8711 195.257 73.58 196.269 72.6096C197.281 71.6392 198.634 71.154 200.33 71.154C202.026 71.154 203.377 71.6371 204.382 72.6054C205.388 73.5738 205.891 74.867 205.891 76.485C205.891 78.103 205.388 79.3983 204.382 80.3645C203.377 81.3329 202.026 81.816 200.33 81.816C198.634 81.816 197.281 81.3329 196.269 80.3645C195.257 79.3962 194.752 78.103 194.752 76.485ZM196.632 76.485C196.632 77.6074 196.965 78.4945 197.628 79.1463C198.291 79.7981 199.193 80.1251 200.33 80.1251C201.467 80.1251 202.369 79.7981 203.027 79.1463C203.688 78.4945 204.017 77.6074 204.017 76.485C204.017 75.3626 203.686 74.4671 203.027 73.8153C202.367 73.1635 201.469 72.8366 200.33 72.8366C199.191 72.8366 198.291 73.1635 197.628 73.8195C196.965 74.4755 196.632 75.3626 196.632 76.485ZM207.136 78.2217H209.117C209.202 78.8589 209.495 79.3504 209.998 79.6961C210.501 80.0418 211.179 80.2146 212.033 80.2146C213.014 80.2146 213.777 80.0813 214.323 79.8148C214.868 79.5482 215.14 79.1776 215.14 78.7048C215.14 78.3592 215.013 78.0968 214.758 77.9177C214.504 77.7386 214.028 77.5908 213.332 77.4762L211.106 77.0847C209.736 76.8536 208.811 76.5391 208.331 76.1393C207.851 75.7395 207.608 75.1418 207.608 74.3463C207.608 73.3031 207.988 72.5097 208.749 71.9682C209.51 71.4247 210.622 71.154 212.087 71.154C213.552 71.154 214.683 71.4351 215.462 71.9953C216.239 72.5555 216.63 73.3655 216.63 74.4192V74.4921H214.876C214.816 73.8799 214.55 73.4238 214.076 73.1281C213.604 72.8303 212.91 72.6825 211.995 72.6825C211.16 72.6825 210.522 72.797 210.083 73.0282C209.645 73.2593 209.424 73.5925 209.424 74.0298C209.424 74.4109 209.558 74.6983 209.824 74.8899C210.09 75.0814 210.701 75.2584 211.659 75.423L213.82 75.777C215.013 75.9769 215.842 76.2872 216.306 76.7099C216.769 77.1305 217 77.7615 217 78.5986C217 79.6294 216.572 80.4249 215.714 80.983C214.857 81.5411 213.629 81.8201 212.029 81.8201C210.428 81.8201 209.31 81.5265 208.508 80.9372C207.706 80.35 207.246 79.4441 207.132 78.2259L207.136 78.2217Z" fill="white"/>
</svg>
